# xmcd CD database file
#
# Track frame offsets:
#	183
#	22790
#	52600
#	88810
#	124568
#	159215
#	197653
#	231070
#	259908
#	284265
#
# Disc length: 4243 seconds
#
# Revision: 8
# Processed by: cddbd v1.5.1PL0 Copyright (c) Steve Scherf et al.
# Submitted via: CDex 1.51
#
DISCID=7210910a
DTITLE=Timo Maas - Connected [CD1]
DYEAR=2001
DGENRE=Techno
TTITLE0=Filmpalast - I Want
TTITLE1=Loafer - Travelogue
TTITLE2=Mad Dogs - Sudden Journey
TTITLE3=Grayson Shipley - Underwater
TTITLE4=Satoshi Tomiie Feat. Kelli Ali - Love in Traffic
TTITLE5=Delerium - Innocente Feat. Leigh Nash of Sixpence None The Richer
TTITLE6=Ogenki Clinic - First Light
TTITLE7=Rozzo - Into Your Heart
TTITLE8=Pascal F.E.O.S - Can Dance
TTITLE9=Haktan O'Nal - Bedford St.
EXTD=YEAR: 2001
EXTT0=
EXTT1=
EXTT2=
EXTT3=
EXTT4=
EXTT5=
EXTT6=
EXTT7=
EXTT8=
EXTT9=
PLAYORDER=
